<?xml version="1.0" encoding="utf-8"?>
<!-- Generator: Adobe Illustrator 23.0.1, SVG Export Plug-In . SVG Version: 6.00 Build 0)  -->
<svg version="1.1" id="Layer_1" xmlns="http://www.w3.org/2000/svg" xmlns:xlink="http://www.w3.org/1999/xlink" x="0px" y="0px"
	 width="101px" height="44px" viewBox="0 0 101 44" style="enable-background:new 0 0 101 44;" xml:space="preserve">
<style type="text/css">
	.st0{fill:none;}
	.st1{fill:#A4B3BA;}
</style>
<title>logo-airbnb</title>
<desc>Created with Sketch.</desc>
<g id="Page-1">
	<g id="Artboard" transform="translate(-408.000000, -264.000000)">
		<g id="logo-airbnb" transform="translate(408.000000, 257.000000)">
			<rect id="Rectangle-Copy" y="7" class="st0" width="101" height="44"/>
			<path id="Fill-2" class="st1" d="M53.2,22c0,1-0.9,1.9-2,1.9s-2-0.8-2-1.9s0.9-1.9,2-1.9C52.3,20.2,53.2,21,53.2,22z M44.8,25.8
				c0,0.2,0,0.5,0,0.5s-1-1.2-3-1.2c-3.4,0-6.1,2.4-6.1,5.7c0,3.3,2.6,5.7,6.1,5.7c2.1,0,3-1.2,3-1.2v0.5c0,0.2,0.2,0.4,0.4,0.4h2.5
				V25.4c0,0-2.3,0-2.5,0C45,25.4,44.8,25.6,44.8,25.8z M44.8,32.8c-0.5,0.6-1.4,1.2-2.5,1.2c-2,0-3.5-1.2-3.5-3.1
				c0-2,1.5-3.1,3.5-3.1c1.1,0,2.1,0.6,2.5,1.2V32.8z M49.7,36.3h3V25.4h-3V36.3z M94.5,25.1c-2.1,0-3,1.2-3,1.2v-6.1h-3v16.1
				c0,0,2.3,0,2.5,0c0.2,0,0.4-0.2,0.4-0.4v-0.5c0,0,1,1.2,3,1.2c3.4,0,6.1-2.4,6.1-5.7S97.9,25.1,94.5,25.1z M94,34
				c-1.2,0-2.1-0.6-2.5-1.2v-3.9c0.5-0.6,1.5-1.2,2.5-1.2c2,0,3.5,1.2,3.5,3.1S96,34,94,34z M86.9,29.9v6.5h-3v-6.2
				c0-1.8-0.6-2.5-2.3-2.5c-0.9,0-1.8,0.4-2.4,1.1v7.6h-3V25.4h2.4c0.3,0,0.4,0.2,0.4,0.4v0.5c0.9-0.8,2-1.2,3.2-1.2
				c1.3,0,2.4,0.3,3.3,1C86.5,27,86.9,28,86.9,29.9z M68.9,25.1c-2.1,0-3,1.2-3,1.2v-6.1h-3v16.1c0,0,2.3,0,2.5,0
				c0.2,0,0.4-0.2,0.4-0.4v-0.5c0,0,1,1.2,3,1.2c3.4,0,6.1-2.4,6.1-5.7C74.9,27.6,72.3,25.1,68.9,25.1z M68.4,34
				c-1.2,0-2.1-0.6-2.5-1.2v-3.9c0.5-0.6,1.5-1.2,2.5-1.2c2,0,3.5,1.2,3.5,3.1S70.4,34,68.4,34z M60.2,25.1c0.9,0,1.4,0.1,1.4,0.1
				v2.6c0,0-2.5-0.8-4.1,0.9v7.6h-3V25.4c0,0,2.3,0,2.5,0c0.3,0,0.4,0.2,0.4,0.4v0.5C58.1,25.7,59.3,25.1,60.2,25.1z M29,35.3
				c-0.2-0.3-0.3-0.7-0.5-1c-0.2-0.5-0.5-1-0.7-1.5l0,0c-2.2-4.3-4.5-8.8-6.9-13.1l-0.1-0.2c-0.2-0.4-0.5-0.9-0.8-1.4
				c-0.3-0.5-0.6-1.1-1.1-1.6c-1-1.2-2.4-1.8-4-1.8c-1.6,0-3,0.6-4,1.7c-0.5,0.5-0.8,1.1-1.1,1.6c-0.3,0.5-0.5,0.9-0.8,1.4L9,19.6
				C6.6,24,4.3,28.4,2.1,32.7l0,0.1c-0.2,0.5-0.5,1-0.7,1.5c-0.2,0.3-0.3,0.7-0.5,1c-0.4,1.1-0.5,2.1-0.4,3.1c0.3,2.2,1.9,4,4.1,4.8
				c0.8,0.3,1.7,0.5,2.5,0.5c0.3,0,0.6,0,0.8-0.1c1-0.1,2.1-0.4,3.1-1c1.3-0.7,2.5-1.6,3.9-3c1.4,1.4,2.6,2.3,3.9,3
				c1,0.6,2.1,0.9,3.1,1c0.2,0,0.6,0.1,0.8,0.1c0.9,0,1.8-0.1,2.5-0.5c2.2-0.8,3.7-2.7,4.1-4.8C29.6,37.4,29.5,36.4,29,35.3z
				 M14.9,36.8c-1.7-2-2.8-3.8-3.2-5.4c-0.2-0.7-0.2-1.2-0.1-1.8c0.1-0.5,0.3-0.9,0.5-1.2c0.6-0.8,1.6-1.3,2.8-1.3
				c1.2,0,2.2,0.5,2.8,1.3c0.3,0.3,0.4,0.8,0.5,1.2c0.1,0.5,0.1,1.1-0.1,1.8C17.7,33,16.6,34.8,14.9,36.8z M27.4,38.2
				c-0.2,1.5-1.3,2.8-2.8,3.4c-0.8,0.3-1.6,0.4-2.4,0.3c-0.8-0.1-1.6-0.3-2.4-0.8c-1.1-0.6-2.3-1.5-3.6-2.8c2.1-2.3,3.3-4.5,3.8-6.4
				c0.2-0.9,0.2-1.7,0.2-2.5c-0.1-0.7-0.4-1.4-0.8-2c-1-1.3-2.6-2.1-4.4-2.1c-1.8,0-3.4,0.8-4.4,2.1c-0.4,0.6-0.7,1.2-0.8,2
				c-0.1,0.8-0.1,1.6,0.2,2.5c0.5,1.9,1.8,4.1,3.8,6.4c-1.3,1.3-2.4,2.2-3.6,2.8c-0.8,0.4-1.6,0.7-2.4,0.8c-0.8,0.1-1.7,0-2.4-0.3
				c-1.5-0.6-2.6-1.9-2.8-3.4c-0.1-0.7,0-1.4,0.3-2.3C2.8,35.7,3,35.4,3.2,35c0.2-0.5,0.5-1,0.7-1.4l0-0.1c2.2-4.3,4.5-8.7,6.9-13
				l0.1-0.2c0.2-0.4,0.5-0.9,0.8-1.3c0.2-0.5,0.5-0.9,0.9-1.3c0.7-0.7,1.5-1.1,2.5-1.1s1.8,0.4,2.5,1.1c0.3,0.4,0.6,0.8,0.9,1.3
				c0.2,0.4,0.5,0.9,0.8,1.3l0.1,0.2c2.4,4.3,4.7,8.7,6.8,13v0c0.2,0.5,0.5,1,0.7,1.4c0.2,0.3,0.3,0.6,0.4,0.9
				C27.5,36.7,27.5,37.4,27.4,38.2L27.4,38.2z"/>
		</g>
	</g>
</g>
</svg>
