<?xml version="1.0" encoding="utf-8"?>
<!-- Generator: Adobe Illustrator 23.0.1, SVG Export Plug-In . SVG Version: 6.00 Build 0)  -->
<svg version="1.1" id="Layer_1" xmlns="http://www.w3.org/2000/svg" xmlns:xlink="http://www.w3.org/1999/xlink" x="0px" y="0px"
	 width="174px" height="44px" viewBox="0 0 174 44" style="enable-background:new 0 0 174 44;" xml:space="preserve">
<style type="text/css">
	.st0{fill:none;}
	.st1{filter:url(#Adobe_OpacityMaskFilter);}
	.st2{fill-rule:evenodd;clip-rule:evenodd;fill:#FFFFFF;}
	.st3{mask:url(#mask-2_1_);fill:#A4B3BA;}
	.st4{filter:url(#Adobe_OpacityMaskFilter_1_);}
	.st5{mask:url(#mask-4_1_);fill:#A4B3BA;}
	.st6{fill:#A4B3BA;}
</style>
<title>logo-automatic</title>
<desc>Created with Sketch.</desc>
<g id="Page-1">
	<g id="Artboard" transform="translate(-770.000000, -272.000000)">
		<g id="logo-automatic" transform="translate(770.000000, 257.000000)">
			<rect id="Rectangle-Copy-3" y="15" class="st0" width="173" height="44"/>
			<g id="Group-4" transform="translate(0.285614, 15.520276)">
				<g id="Fill-1-Clipped">
					<g>
						<defs>
							<filter id="Adobe_OpacityMaskFilter" filterUnits="userSpaceOnUse" x="55.6" y="15.3" width="14.6" height="12.5">
								<feColorMatrix  type="matrix" values="1 0 0 0 0  0 1 0 0 0  0 0 1 0 0  0 0 0 1 0"/>
							</filter>
						</defs>
						<mask maskUnits="userSpaceOnUse" x="55.6" y="15.3" width="14.6" height="12.5" id="mask-2_1_">
							<g class="st1">
								<polygon id="path-1_1_" class="st2" points="0,15.3 70.1,15.3 70.1,27.7 0,27.7 								"/>
							</g>
						</mask>
						<path id="Fill-1" class="st3" d="M67.8,21.3c0-2.2-1.8-4.2-4.9-4.2c-3.2,0-4.9,2-4.9,4.2v0.3c0,2.2,1.7,4.3,4.9,4.3
							c3.2,0,4.9-2,4.9-4.3V21.3z M62.8,27.7c-4.4,0-7.3-3-7.3-6v-0.4c0-3.1,2.9-6,7.3-6c4.4,0,7.3,2.9,7.3,6v0.4
							C70.1,24.8,67.3,27.7,62.8,27.7L62.8,27.7z"/>
					</g>
				</g>
				<g id="Fill-3-Clipped">
					<g>
						<defs>
							<filter id="Adobe_OpacityMaskFilter_1_" filterUnits="userSpaceOnUse" x="0" y="15.7" width="15.5" height="11.6">
								<feColorMatrix  type="matrix" values="1 0 0 0 0  0 1 0 0 0  0 0 1 0 0  0 0 0 1 0"/>
							</filter>
						</defs>
						<mask maskUnits="userSpaceOnUse" x="0" y="15.7" width="15.5" height="11.6" id="mask-4_1_">
							<g class="st4">
								<polygon id="path-3_1_" class="st2" points="0,15.3 70.1,15.3 70.1,27.7 0,27.7 								"/>
							</g>
						</mask>
						<path id="Fill-3" class="st5" d="M7.6,17.9l-2.7,4.9h5.5L7.6,17.9z M13,27.3l-1.6-2.9H4.1l-1.6,2.9H0l6.7-11.6h1.9l6.8,11.6
							H13L13,27.3z"/>
					</g>
				</g>
				<path id="Fill-5" class="st6" d="M26.1,27.7c-4.5,0-6.5-2.3-6.5-5.3v-6.8h2.3v6.8c0,2.1,1.5,3.4,4.4,3.4c3,0,4.2-1.3,4.2-3.4
					v-6.8h2.3v6.8C32.8,25.3,30.8,27.7,26.1,27.7"/>
				<polyline id="Fill-6" class="st6" points="45.8,17.5 45.8,27.3 43.5,27.3 43.5,17.5 38,17.5 38,15.7 51.3,15.7 51.3,17.5 
					45.8,17.5 				"/>
				<polyline id="Fill-7" class="st6" points="91,27.3 91,18.1 90.3,19.1 85.1,27.3 84,27.3 78.8,19.1 78.2,18.1 78.2,27.3 
					75.9,27.3 75.9,15.7 79.2,15.7 84.1,23.6 84.7,24.6 85.2,23.6 90.1,15.7 93.3,15.7 93.3,27.3 91,27.3 				"/>
				<path id="Fill-8" class="st6" d="M105.6,17.9l-2.7,4.9h5.5L105.6,17.9z M111,27.3l-1.6-2.9H102l-1.6,2.9h-2.5l6.7-11.6h1.9
					l6.8,11.6H111L111,27.3z"/>
				<polyline id="Fill-9" class="st6" points="122.9,17.5 122.9,27.3 120.5,27.3 120.5,17.5 115.1,17.5 115.1,15.7 128.3,15.7 
					128.3,17.5 122.9,17.5 				"/>
				<polyline id="Fill-10" class="st6" points="140,17.5 140,27.3 137.7,27.3 137.7,17.5 132.2,17.5 132.2,15.7 145.5,15.7 
					145.5,17.5 140,17.5 				"/>
				<path id="Fill-11" class="st6" d="M151.2,27.3V16.8c0.9,0,1.3-0.5,1.3-1.1h1v11.6H151.2"/>
				<path id="Fill-12" class="st6" d="M171.8,19c-1.1-1-2.8-1.9-5-1.9c-3.3,0-5.2,2.1-5.2,4.3v0.2c0,2.2,1.9,4.2,5.4,4.2
					c2.1,0,3.8-0.9,4.9-1.9l1.4,1.4c-1.4,1.3-3.7,2.3-6.4,2.3c-4.7,0-7.6-2.9-7.6-6v-0.4c0-3.1,3.1-6.1,7.7-6.1c2.6,0,5,1,6.3,2.3
					L171.8,19"/>
				<path id="Fill-13" class="st6" d="M64.4,19.3c0.4,0.3,0.5,0.8,0.3,1.2l-2.1,3.1c-0.3,0.4-0.8,0.5-1.3,0.3
					c-0.4-0.3-0.5-0.8-0.3-1.2l2.1-3.1C63.4,19.2,64,19,64.4,19.3"/>
			</g>
		</g>
	</g>
</g>
</svg>
