<?xml version="1.0" encoding="utf-8"?>
<!-- Generator: Adobe Illustrator 23.0.1, SVG Export Plug-In . SVG Version: 6.00 Build 0)  -->
<svg version="1.1" id="Layer_1" xmlns="http://www.w3.org/2000/svg" xmlns:xlink="http://www.w3.org/1999/xlink" x="0px" y="0px"
	 width="65px" height="44px" viewBox="0 0 65 44" style="enable-background:new 0 0 65 44;" xml:space="preserve">
<style type="text/css">
	.st0{fill:#A4B3BA;}
	.st1{fill:none;}
</style>
<title>logo-bissell-2</title>
<desc>Created with Sketch.</desc>
<g id="Page-1">
	<g id="Artboard" transform="translate(-1050.000000, -258.000000)">
		<g id="logo-bissell-2" transform="translate(1050.000000, 257.000000)">
			<path id="Fill-1" class="st0" d="M62.6,18.8c-1.1,0-1.5,0.7-1.5,1.4c0,0.7,0.5,1.4,1.5,1.4c0.9,0,1.5-0.6,1.5-1.4
				C64.1,19.5,63.6,18.8,62.6,18.8L62.6,18.8z M62.6,19.1c0.7,0,1.2,0.4,1.2,1c0,0.6-0.5,1.1-1.2,1.1c-0.7,0-1.1-0.4-1.1-1
				C61.4,19.6,61.9,19.1,62.6,19.1L62.6,19.1z M62.2,20.4h0.3l0.4,0.6h0.4l-0.4-0.6c0.3,0,0.4-0.1,0.4-0.4c0-0.3-0.2-0.5-0.6-0.5
				h-0.9v1.5h0.4L62.2,20.4z M62.6,19.7c0.2,0,0.3,0,0.3,0.2c0,0.1-0.1,0.2-0.3,0.2h-0.5v-0.4H62.6z"/>
			<rect id="Rectangle-Copy-4" y="1" class="st1" width="65" height="44"/>
			<polygon id="Fill-3" class="st0" points="13.7,22 15.5,22 15.5,29.6 13.7,29.6 			"/>
			<polygon id="Fill-5" class="st0" points="13.7,18.9 15.5,18.9 15.5,21.3 13.7,21.3 			"/>
			<polygon id="Fill-7" class="st0" points="54.7,18.9 56.4,18.8 56.5,29.6 54.7,29.6 			"/>
			<polygon id="Fill-9" class="st0" points="57.7,18.8 59.5,18.8 59.5,29.6 57.7,29.6 			"/>
			<path id="Fill-11" class="st0" d="M0.1,22l9.9,0c1.7,0,2.1,1.2,2.1,1.9c0,0.7-0.3,1.4-0.8,1.6c0.8,0.3,1.3,1.2,1.3,2
				c-0.1,2-2.2,2.2-3.1,2.2l-9.3,0L0.1,22z M9.3,28.5c0.7,0,1.3-0.5,1.3-1.1c0-0.6-0.6-1.2-1.3-1.2l-7.4,0v2.3L9.3,28.5z M9,25.1
				c0.6,0,1.1-0.4,1.1-0.9c0-0.6-0.5-0.9-1.1-0.9l-7.2,0v1.9L9,25.1z"/>
			<path id="Fill-13" class="st0" d="M45.1,22c-0.6,0-2.2,0.3-2.2,1.6c0,1.1,0.6,1.7,1.1,1.8c-0.6,0.2-1.1,1.1-1.1,1.9
				c0,0.8,0.3,2.3,3.1,2.3l7.6,0l0-1.1l-7.4,0c-0.7,0-1.3-0.5-1.3-1.1c0-0.6,0.6-1.2,1.3-1.2l7,0l0-1.2L46,25
				c-0.6,0-1.1-0.4-1.1-0.9c0-0.6,0.5-0.9,1.1-0.9l7.6,0V22L45.1,22z"/>
			<path id="Fill-15" class="st0" d="M39.7,24.4h1.8c0-1.9-0.9-2.4-3.5-2.4l-4.9,0c-1.1,0-3,0.5-3.1,2c0,1.5,0.7,2.2,2.7,2.2l5.9,0
				c0.7,0,1.4,0.4,1.4,1.1s-0.4,1.2-1.6,1.2l-4.6,0c-0.6,0-1.9-0.1-1.9-1.2H30c0,0.9,0.2,2.4,2.9,2.4l5.8,0c1.1,0,3-0.5,3-2.4
				c0-1.9-1.8-2.2-2.7-2.2l-5.9,0c-1,0-1.3-0.5-1.3-0.9c0-0.4,0.3-0.9,1.3-0.9l5.1,0C39.1,23.1,39.7,23.4,39.7,24.4"/>
			<path id="Fill-17" class="st0" d="M27,24.4h1.8c0-1.9-0.9-2.4-3.5-2.4l-4.9,0c-1.1,0-3,0.5-3.1,2c0,1.5,0.7,2.2,2.7,2.2l5.9,0
				c0.7,0,1.4,0.4,1.4,1.1s-0.4,1.2-1.6,1.2l-4.6,0c-0.6,0-1.9-0.1-1.9-1.2h-1.8c0,0.9,0.2,2.4,2.9,2.4l5.8,0c1.1,0,3-0.5,3-2.4
				c0-1.9-1.8-2.2-2.7-2.2l-5.9,0c-1,0-1.3-0.5-1.3-0.9c0-0.4,0.3-0.9,1.3-0.9l5.1,0C26.4,23.1,27,23.4,27,24.4"/>
			<path id="Fill-19" class="st0" d="M54.2,43.3c2.8,0,1.7-2.4,1.2-3.2c-0.7-1.2-4.6-7.4-4.6-7.4L9.4,32.8c0,0-3.8,6.3-4.6,7.4
				C4.4,41,3.2,43.3,6,43.3L54.2,43.3z"/>
			<path id="Fill-21" class="st0" d="M17.2,19l25.1,0c0,0-6.3-10.5-7.8-12.9c-1.4-2.2-2.2-3.3-4.8-3.3c-2.6,0-3.4,1.1-4.8,3.3
				C23.5,8.3,17.2,19,17.2,19"/>
		</g>
	</g>
</g>
</svg>
