<?xml version="1.0" encoding="utf-8"?>
<!-- Generator: Adobe Illustrator 23.0.1, SVG Export Plug-In . SVG Version: 6.00 Build 0)  -->
<svg version="1.1" id="Layer_1" xmlns="http://www.w3.org/2000/svg" xmlns:xlink="http://www.w3.org/1999/xlink" x="0px" y="0px"
	 width="44px" height="44px" viewBox="0 0 44 44" style="enable-background:new 0 0 44 44;" xml:space="preserve">
<style type="text/css">
	.st0{fill:none;}
	.st1{fill:#A4B3BA;}
</style>
<title>logo-ge</title>
<desc>Created with Sketch.</desc>
<g id="Page-1">
	<g id="Artboard" transform="translate(-615.000000, -257.000000)">
		<g id="logo-ge" transform="translate(615.000000, 257.000000)">
			<rect id="Rectangle-Copy-2" y="0" class="st0" width="44" height="44"/>
			<path id="Fill-1" class="st1" d="M37.5,6.5C33.2,2.2,28.1,0,22,0C16,0,10.8,2.2,6.5,6.5S0,15.9,0,22c0,6.1,2.2,11.3,6.5,15.6
				S16,44,22,44c6,0,11.2-2.1,15.5-6.4S44,28.1,44,22C44,15.9,41.8,10.8,37.5,6.5z M36.8,36.8c-4.1,4.1-9,6.1-14.8,6.1
				c-5.8,0-10.7-2-14.8-6.1c-4.1-4.1-6.1-9-6.1-14.8c0-5.8,2-10.7,6.1-14.8s9-6.1,14.8-6.1c5.8,0,10.7,2.1,14.8,6.1s6.1,9,6.1,14.8
				S40.9,32.7,36.8,36.8z M38.6,11.8c-2-3.2-4.8-5.4-8.4-6.5c-1.7-0.5-3.2-0.8-4.4-0.8c-1.3,0-2.5,0.3-3.3,1c-0.9,0.7-1.5,1-1.9,1
				C19.5,6.5,19,6,19,5c0-0.7,0.4-1.3,1.2-1.8s1.8-0.7,3.1-0.7c2.1,0,3.6,0.3,4.7,0.8L28,3.2c-1.9-0.7-4-1-6.2-1
				c-3.7,0-7.1,0.9-10,2.7c-3.2,2-5.4,4.8-6.5,8.4c-0.5,1.7-0.8,3.2-0.8,4.4c0,1.3,0.3,2.5,1,3.4c0.7,0.9,1,1.6,1,2
				c0,1-0.5,1.5-1.5,1.5c-1.7,0-2.5-1.4-2.5-4.3c0-1.7,0.2-3.2,0.7-4.7l-0.2-0.1c-0.6,2.6-1,4.7-1,6.2c0,3.8,0.9,7.1,2.7,10.1
				c2,3.2,4.8,5.4,8.4,6.5c1.7,0.5,3.2,0.8,4.4,0.8c1.3,0,2.5-0.3,3.3-1c0.9-0.7,1.5-1,1.9-1c1,0,1.5,0.5,1.5,1.5
				c0,0.7-0.4,1.3-1.2,1.7c-0.8,0.5-1.8,0.7-3.1,0.7c-1.9,0-3.5-0.2-4.7-0.7l-0.1,0.2c1.4,0.6,3.5,1,6.2,1c3.7,0,7.1-0.9,10-2.7
				c3.2-2,5.4-4.8,6.5-8.4c0.5-1.7,0.8-3.2,0.8-4.4c0-1.4-0.3-2.5-1-3.4c-0.7-0.9-1-1.6-1-1.9c0-1,0.5-1.5,1.5-1.5
				c0.7,0,1.3,0.4,1.8,1.2c0.5,0.8,0.7,1.8,0.7,3.1c0,1.4-0.2,3-0.7,4.7l0.2,0.1c0.6-1.9,1-4,1-6.3C41.4,18,40.4,14.7,38.6,11.8z
				 M32.3,31.7c-1.1,1.2-2.5,1.7-4.2,1.7c-2,0-3.6-0.7-4.7-2.2c-1.1-1.3-1.6-2.8-1.6-4.5c0-3.2,1.4-5.5,4.3-7
				c-0.2-0.2-0.4-0.4-0.6-0.7c-1.7,1.2-3.6,2.4-5.6,3.5c-0.2,2.6-0.4,4.4-0.8,5.5c-1.2,3.6-3.2,5.4-6,5.4c-1.1,0-2-0.3-2.6-1
				c-0.6-0.7-0.9-1.5-0.9-2.5c0-1.5,0.7-3,2.2-4.3c0.8-0.7,1.7-1.4,2.9-2.1c0.6-0.3,1.7-1,3.5-1.9c0.1-0.5,0.1-0.9,0.2-1.2
				c-0.6,0.6-1.4,0.9-2.4,0.9c-1.4,0-2.2-0.8-2.6-2.3c-2-0.2-3-1.3-3-3.3c0-1.7,0.4-2.6,1.5-2.6c0.3,0,0.5,0.2,0.5,0.5
				c0,0-0.1,0.3-0.2,0.7c-0.1,0.4-0.2,0.8-0.2,1.1c0,1.2,0.4,1.8,1.3,1.8c0-1.7,0.5-3.3,1.6-4.9s2.2-2.4,3.5-2.4
				c1.4,0,2.1,0.6,2.1,1.9c0,1.4-0.6,2.8-1.7,4.1c-1.1,1.4-2.3,2.3-3.5,2.7c0.2,0.6,0.5,0.9,1,0.9c0.9,0,1.7-0.5,2.6-1.5
				c0.4-2.1,1.2-3.1,2.4-3.1c0.5,0,0.7,0.3,0.7,0.8c0,0.7-0.6,1.6-1.7,2.9C20.1,19.4,20,20,20,20.6c2.1-1.3,3.7-2.3,4.8-3.1
				c-0.1-0.3-0.1-0.8-0.1-1.4c0-1.5,0.4-2.9,1.3-4.1c0.9-1.3,1.9-1.9,3.1-1.9c1.4,0,2.1,0.7,2.1,2.1c0,1.7-1.4,3.6-4.3,5.8
				c0.2,0.6,0.6,1,1,1.2c0.1-0.2,0.6-0.2,1.5-0.2c1.2,0,1.8,0.3,1.8,0.9c0,0.7-0.7,1-2.1,1c-0.3,0-0.7,0-1.3-0.1
				c-2.6,0.7-3.9,2.6-3.9,5.8c0,1.4,0.4,2.6,1.2,3.6c0.8,1,1.8,1.5,3,1.5c1,0,1.9-0.3,2.6-1c0.7-0.7,1-1.6,1-2.7c0-2-0.6-3-2.1-3
				c-0.9,0-1.4,0.4-1.4,1.3c0,0.4,0.1,0.9,0.4,1.2c0.3,0.4,0.4,0.7,0.4,0.9c0,0.5-0.3,0.8-0.9,0.8c-0.6,0-1.1-0.3-1.5-0.8
				c-0.4-0.5-0.6-1.2-0.6-1.9c0-0.9,0.4-1.7,1.1-2.4c0.7-0.6,1.6-1,2.6-1c1.3,0,2.3,0.5,3,1.4s1.1,2.1,1.1,3.4
				C33.9,29.2,33.4,30.5,32.3,31.7z M29.3,11.7c-0.5,0-0.9,0.4-1.5,1.3c-0.5,0.9-0.8,1.8-0.8,3c1.8-1.5,2.6-2.7,2.6-3.6
				C29.7,11.9,29.6,11.7,29.3,11.7z M18.7,11.7c-0.6,0-1.3,0.6-2.1,1.9c-0.8,1.3-1.1,2.4-1.1,3.4c1-0.5,1.9-1.3,2.6-2.3
				s1.1-1.9,1.1-2.6C19.1,11.8,19,11.7,18.7,11.7z M11.7,29.7c0,1.1,0.5,1.6,1.4,1.6c1.2,0,2.3-0.9,3.3-2.6c0.8-1.5,1.3-3.2,1.6-5.3
				C13.8,25.4,11.7,27.5,11.7,29.7L11.7,29.7z"/>
		</g>
	</g>
</g>
</svg>
