<?xml version="1.0" encoding="utf-8"?>
<!-- Generator: Adobe Illustrator 23.0.1, SVG Export Plug-In . SVG Version: 6.00 Build 0)  -->
<svg version="1.1" id="Layer_1" xmlns="http://www.w3.org/2000/svg" xmlns:xlink="http://www.w3.org/1999/xlink" x="0px" y="0px"
	 width="130px" height="44px" viewBox="0 0 130 44" style="enable-background:new 0 0 130 44;" xml:space="preserve">
<style type="text/css">
	.st0{fill:none;}
	.st1{fill:#A4B3BA;}
</style>
<title>logo-microsoft</title>
<desc>Created with Sketch.</desc>
<g id="Page-1">
	<g id="Artboard" transform="translate(-171.000000, -266.000000)">
		<g id="logo-microsoft" transform="translate(171.000000, 257.000000)">
			<rect id="Rectangle" y="9" class="st0" width="130" height="44"/>
			<path id="Shape" class="st1" d="M45.8,33.2l-0.8,2H45c-0.1-0.5-0.4-1.1-0.8-2l-4.1-9.5H36v15.2h2.7v-9.4c0-0.6,0-1.3,0-2.1
				c0-0.4-0.1-0.7-0.1-1h0.1c0.1,0.6,0.3,1,0.4,1.3l5,11.1h1.9l4.9-11.2c0.1-0.3,0.2-0.8,0.3-1.2h0.1c-0.1,1.1-0.1,2.1-0.1,2.7v9.6
				H54V23.7h-3.9L45.8,33.2L45.8,33.2z M56.7,28h2.8v10.9h-2.8V28z M58.1,23.4c-0.5,0-0.9,0.2-1.2,0.4c-0.3,0.3-0.5,0.6-0.5,1.1
				c0,0.4,0.2,0.8,0.5,1c0.3,0.3,0.7,0.4,1.2,0.4s0.9-0.2,1.2-0.4c0.3-0.3,0.5-0.6,0.5-1s-0.2-0.8-0.5-1.1
				C59,23.6,58.6,23.4,58.1,23.4L58.1,23.4z M69.4,27.9c-0.5-0.1-1.1-0.2-1.6-0.2c-1.3,0-2.4,0.3-3.4,0.8c-1,0.5-1.7,1.2-2.2,2.1
				c-0.5,0.9-0.8,1.9-0.8,3.1c0,1,0.3,2,0.8,2.8c0.5,0.8,1.2,1.5,2.1,1.9c0.9,0.5,1.9,0.7,3.1,0.7c1.3,0,2.5-0.3,3.4-0.7l0,0v-2.4
				l-0.1,0.1c-0.4,0.3-0.9,0.5-1.4,0.6C68.8,37,68.3,37,67.9,37c-1.1,0-2-0.3-2.6-0.9c-0.6-0.6-1-1.5-1-2.6c0-1.1,0.3-2,1-2.7
				s1.5-1,2.6-1c0.9,0,1.8,0.3,2.7,0.8l0.1,0.1v-2.5l0,0C70.3,28.1,69.9,28,69.4,27.9L69.4,27.9z M78.6,27.8c-0.7,0-1.3,0.2-1.9,0.6
				c-0.5,0.4-0.8,0.9-1.1,1.5h0V28h-2.8v10.9h2.8v-5.6c0-0.9,0.2-1.7,0.7-2.3c0.5-0.6,1.1-0.9,1.8-0.9c0.3,0,0.5,0.1,0.8,0.1
				c0.3,0.1,0.5,0.2,0.7,0.3l0.1,0.1V28l-0.1,0C79.4,27.9,79.1,27.8,78.6,27.8L78.6,27.8z M86.2,27.8c-2,0-3.5,0.5-4.6,1.6
				c-1.1,1-1.7,2.5-1.7,4.3c0,1.7,0.6,3.1,1.6,4.1c1.1,1,2.5,1.5,4.4,1.5c1.9,0,3.4-0.5,4.5-1.6c1.1-1.1,1.7-2.5,1.7-4.2
				c0-1.7-0.5-3.1-1.6-4.1C89.5,28.2,88,27.8,86.2,27.8L86.2,27.8z M88.4,36.1c-0.5,0.6-1.3,0.9-2.3,0.9c-1,0-1.8-0.3-2.4-0.9
				c-0.6-0.6-0.9-1.5-0.9-2.6c0-1.2,0.3-2,0.9-2.7c0.6-0.6,1.4-0.9,2.4-0.9c1,0,1.8,0.3,2.3,0.9c0.6,0.6,0.9,1.5,0.9,2.7
				C89.2,34.6,89,35.5,88.4,36.1L88.4,36.1z M98.3,32.5c-0.9-0.3-1.4-0.6-1.7-0.8c-0.2-0.2-0.3-0.5-0.3-0.8c0-0.3,0.1-0.6,0.5-0.8
				s0.7-0.3,1.2-0.3c0.5,0,1,0.1,1.4,0.2s0.9,0.3,1.2,0.5l0.1,0.1v-2.4l-0.1,0c-0.3-0.1-0.8-0.2-1.3-0.3c-0.5-0.1-1-0.1-1.4-0.1
				c-1.3,0-2.4,0.3-3.3,0.9c-0.9,0.6-1.3,1.4-1.3,2.4c0,0.5,0.1,1,0.3,1.3c0.2,0.4,0.5,0.7,0.9,1c0.4,0.3,0.9,0.6,1.7,0.9
				c0.6,0.3,1.1,0.5,1.4,0.6c0.3,0.2,0.5,0.3,0.6,0.5c0.1,0.2,0.2,0.4,0.2,0.6c0,0.7-0.6,1.1-1.8,1.1c-0.5,0-1-0.1-1.5-0.3
				c-0.6-0.2-1.1-0.4-1.6-0.7L93.6,36v2.5l0.1,0c0.4,0.2,0.9,0.3,1.5,0.4c0.6,0.1,1.1,0.2,1.6,0.2c1.4,0,2.6-0.3,3.5-0.9
				c0.9-0.6,1.3-1.4,1.3-2.5c0-0.7-0.2-1.4-0.7-1.9C100.2,33.4,99.4,32.9,98.3,32.5L98.3,32.5z M108.9,27.8c-2,0-3.5,0.5-4.6,1.6
				s-1.7,2.5-1.7,4.3c0,1.7,0.6,3.1,1.6,4.1c1.1,1,2.5,1.5,4.4,1.5c1.9,0,3.4-0.5,4.5-1.6c1.1-1.1,1.7-2.5,1.7-4.2
				c0-1.7-0.5-3.1-1.6-4.1C112.2,28.2,110.7,27.8,108.9,27.8L108.9,27.8z M111.1,36.1c-0.5,0.6-1.3,0.9-2.3,0.9
				c-1,0-1.8-0.3-2.4-0.9c-0.6-0.6-0.9-1.5-0.9-2.6c0-1.2,0.3-2,0.9-2.7c0.6-0.6,1.4-0.9,2.4-0.9c1,0,1.8,0.3,2.3,0.9
				c0.6,0.6,0.9,1.5,0.9,2.7C111.9,34.6,111.7,35.5,111.1,36.1L111.1,36.1z M129.7,30.1V28h-2.8v-3.2l-0.1,0l-2.7,0.7l-0.1,0V28
				h-4.2v-1.4c0-0.6,0.2-1.1,0.5-1.4s0.8-0.5,1.3-0.5c0.4,0,0.8,0.1,1.2,0.3L123,25v-2.2l-0.1,0c-0.4-0.1-0.9-0.2-1.6-0.2
				c-0.8,0-1.6,0.2-2.2,0.5c-0.7,0.3-1.2,0.8-1.5,1.4c-0.4,0.6-0.6,1.3-0.6,2V28h-2v2.1h2v8.8h2.8v-8.8h4.2v5.6
				c0,2.3,1.2,3.5,3.5,3.5c0.4,0,0.8-0.1,1.2-0.1c0.4-0.1,0.7-0.2,0.9-0.3l0,0v-2.1l-0.1,0.1c-0.2,0.1-0.3,0.2-0.6,0.2
				c-0.2,0.1-0.4,0.1-0.6,0.1c-0.6,0-0.9-0.1-1.2-0.4c-0.3-0.3-0.4-0.7-0.4-1.4v-5.1H129.7L129.7,30.1z"/>
			<polygon id="Path" class="st1" points="0,18.6 13.2,18.6 13.2,30.7 0,30.7 			"/>
			<polygon class="st1" points="14.5,18.6 27.7,18.6 27.7,30.7 14.5,30.7 			"/>
			<polygon class="st1" points="0,31.9 13.2,31.9 13.2,44 0,44 			"/>
			<polygon class="st1" points="14.5,31.9 27.7,31.9 27.7,44 14.5,44 			"/>
		</g>
	</g>
</g>
</svg>
