<?xml version="1.0" encoding="utf-8"?>
<!-- Generator: Adobe Illustrator 23.0.1, SVG Export Plug-In . SVG Version: 6.00 Build 0)  -->
<svg version="1.1" id="Layer_1" xmlns="http://www.w3.org/2000/svg" xmlns:xlink="http://www.w3.org/1999/xlink" x="0px" y="0px"
	 width="87px" height="44px" viewBox="0 0 87 44" style="enable-background:new 0 0 87 44;" xml:space="preserve">
<style type="text/css">
	.st0{fill:none;}
	.st1{fill:#A4B3BA;}
</style>
<title>netflix-2</title>
<desc>Created with Sketch.</desc>
<g id="Page-1">
	<g id="Artboard" transform="translate(-1222.000000, -267.000000)">
		<g id="netflix-2" transform="translate(1222.000000, 257.000000)">
			<rect id="Rectangle-Copy-5" y="10" class="st0" width="86" height="44"/>
			<path id="Shape" class="st1" d="M73.7,41.9c1.2,0.1,2.4,0.2,3.6,0.4l2.6-6.5l2.5,7.1c1.3,0.2,2.6,0.3,3.9,0.5l-4.4-12.5L86.3,20
				h-3.7l0,0.1L80.2,26L78.1,20h-3.7l3.8,10.8L73.7,41.9L73.7,41.9z M70.9,41.7V20h-3.7v21.4C68.4,41.5,69.7,41.6,70.9,41.7
				 M43.2,40.5c1,0,2,0,3,0v-8h4.4v-3.4h-4.4v-5.7h5.1V20h-8.8v20.5C42.7,40.5,43,40.5,43.2,40.5 M31.7,40.7c1.2,0,2.5-0.1,3.7-0.1
				V23.4h3.4V20H28.3v3.4h3.4L31.7,40.7L31.7,40.7z M3.5,43V30.1l4.4,12.4c1.3-0.2,2.7-0.3,4-0.4V20H8.4v13.4L3.7,20H0v23.4h0
				C1.2,43.3,2.4,43.1,3.5,43 M24.7,23.4V20h-8.8v21.6c2.9-0.3,5.9-0.5,8.8-0.6v-3.4c-1.7,0.1-3.4,0.2-5.1,0.3v-5.4h4.4v-3.4h-4.4
				v-5.7H24.7z M58.6,37.5V20h-3.7v20.7c2.9,0.1,5.9,0.3,8.8,0.4v-3.4C62,37.6,60.3,37.5,58.6,37.5"/>
		</g>
	</g>
</g>
</svg>
